<svg width="512" height="513" viewBox="0 0 512 513" fill="none" xmlns="http://www.w3.org/2000/svg">
<path d="M129.84 76.9174L221.377 76.3838C240.251 76.3838 271.81 76.9171 284.788 76.9174C297.765 76.9177 330.813 76.9174 339.18 76.9174C354.302 76.9174 367.02 88.4067 367.02 104.48C367.02 120.554 367.02 149.252 367.02 161.266C367.02 174.904 367.02 193.156 367.02 212.031V313.182C367.02 332.057 367.02 348.534 367.02 360.916C367.02 373.298 366.868 399.631 366.868 408.723C366.868 428.381 349.36 435.838 341.068 435.838C320.306 435.838 279.106 435.858 267.616 435.858C256.125 435.858 240.066 435.871 221.191 435.871L130.112 436.204C111.237 436.204 97.7383 436.204 85.0234 436.204C72.6616 436.204 52.3388 436.15 36.6557 436.15C20.3541 436.15 7.85834 425.035 7.85834 409.866C7.85834 401.128 7.88499 353.072 7.88448 340.287C7.88356 328.397 7.64062 313.24 7.64062 294.365V203.344C7.64062 184.469 7.97941 170.032 7.80965 158.077C7.63989 146.121 7.82773 114.782 7.82773 104.027C7.82773 92.4879 14.7074 76.8172 35.1329 76.8173C54.913 76.8175 72.3124 76.8635 85.0211 76.8635C97.7298 76.8635 110.965 76.9174 129.84 76.9174ZM219.594 235.937C219.839 235.619 265.783 175.299 266.83 173.876C267.876 172.453 270.506 169.034 270.506 169.034C270.506 169.034 230.348 169.061 228.687 169.061C225.358 169.061 225.87 169.061 224.765 169.061L160.276 258.351V169.041C155.938 169.041 152.042 169.041 148.026 169.041C151.464 169.041 144.588 169.041 148.026 169.041C144.588 169.041 146.153 169.041 141.918 169.041C138.48 169.041 130.651 169.061 122.819 169.061V362.442C127.903 362.442 125.782 362.442 130.235 362.442C137.613 362.442 136.131 362.442 139.569 362.442C143.007 362.442 156.521 362.442 160.283 362.442C160.283 359.678 160.246 308.922 160.246 305.484L180.712 282.985L228.533 362.431C233.229 362.431 272.806 362.418 272.869 362.418C272.933 362.418 253.987 332.263 252.987 330.667C251.987 329.072 238.043 306.744 237.602 306.027C237.161 305.309 224.511 285.098 224.042 284.374C223.572 283.65 205.422 254.571 205.422 254.571C205.422 254.571 219.348 236.255 219.594 235.937Z" fill="white"/>
<rect x="390.021" y="408.544" width="114.339" height="27.66" fill="white"/>
</svg>
