<svg width="512" height="513" viewBox="0 0 512 513" fill="none" xmlns="http://www.w3.org/2000/svg">
<path d="M135.418 124.409L202.719 124.017C216.596 124.017 239.799 124.409 249.341 124.409C258.882 124.41 283.18 124.409 289.332 124.409C300.45 124.409 309.801 132.857 309.801 144.675C309.801 156.492 309.801 177.592 309.801 186.425C309.801 196.453 309.801 209.872 309.801 223.75V298.12C309.801 311.997 309.801 324.112 309.801 333.216C309.801 342.319 309.689 361.68 309.689 368.365C309.689 382.818 296.816 388.301 290.72 388.301C275.456 388.301 245.164 388.316 236.715 388.316C228.267 388.316 216.46 388.325 202.582 388.325L135.618 388.57C121.74 388.57 111.815 388.57 102.467 388.57C93.3781 388.57 78.436 388.53 66.9052 388.53C54.9197 388.53 45.7323 380.358 45.7323 369.205C45.7323 362.781 45.7519 327.449 45.7516 318.049C45.7509 309.306 45.5723 298.162 45.5723 284.285V217.363C45.5723 203.485 45.8214 192.871 45.6965 184.081C45.5717 175.291 45.7098 152.249 45.7098 144.341C45.7098 135.857 50.768 124.336 65.7856 124.336C80.3287 124.336 93.1213 124.37 102.465 124.37C111.809 124.37 121.54 124.409 135.418 124.409ZM201.408 241.327C201.589 241.093 235.368 196.743 236.137 195.697C236.907 194.65 238.84 192.137 238.84 192.137C238.84 192.137 209.315 192.156 208.093 192.156C205.646 192.156 206.022 192.156 205.21 192.156L157.795 257.806V192.142C154.606 192.142 151.741 192.142 148.789 192.142C146.261 192.142 151.317 192.142 148.789 192.142C146.261 192.142 147.411 192.142 144.298 192.142C141.77 192.142 136.014 192.156 130.255 192.156V334.337C133.994 334.337 132.434 334.337 135.708 334.337C141.133 334.337 140.043 334.337 142.571 334.337C145.099 334.337 155.035 334.337 157.8 334.337C157.8 332.306 157.773 294.988 157.773 292.46L172.82 275.917L207.98 334.329C211.433 334.329 240.531 334.32 240.578 334.32C240.625 334.32 226.695 312.149 225.96 310.976C225.224 309.803 214.973 293.386 214.648 292.859C214.324 292.332 205.024 277.471 204.678 276.939C204.333 276.407 190.988 255.027 190.988 255.027C190.988 255.027 201.227 241.561 201.408 241.327Z" fill="black"/>
<rect x="332.801" y="360.91" width="133.627" height="27.66" fill="black"/>
</svg>
